<svg width="43" height="42" viewBox="0 0 43 42" fill="none" xmlns="http://www.w3.org/2000/svg">
<path d="M40.8942 27H31.625C30.542 27 29.5034 27.4214 28.7376 28.1716C27.9719 28.9217 27.5417 29.9391 27.5417 31V40.08" fill="black"/>
<path d="M11.2083 3.68005V7.00005C11.2083 8.59135 11.8536 10.1175 13.0023 11.2427C14.151 12.3679 15.7089 13.0001 17.3333 13.0001C18.4163 13.0001 19.4549 13.4215 20.2207 14.1716C20.9865 14.9218 21.4167 15.9392 21.4167 17.0001C21.4167 19.2001 23.2542 21.0001 25.5 21.0001C26.583 21.0001 27.6216 20.5786 28.3874 19.8285C29.1531 19.0783 29.5833 18.0609 29.5833 17.0001C29.5833 14.8001 31.4208 13.0001 33.6667 13.0001H40.1387" fill="black"/>
<path d="M19.3746 40.9V33C19.3746 31.9391 18.9444 30.9217 18.1786 30.1716C17.4128 29.4214 16.3742 29 15.2913 29C14.2083 29 13.1697 28.5786 12.4039 27.8284C11.6381 27.0783 11.2079 26.0609 11.2079 25V23C11.2079 21.9391 10.7777 20.9217 10.012 20.1716C9.24618 19.4214 8.20757 19 7.1246 19H1.10168" fill="black"/>
<path d="M21.4167 41C32.6925 41 41.8333 32.0457 41.8333 21C41.8333 9.9543 32.6925 1 21.4167 1C10.1409 1 1 9.9543 1 21C1 32.0457 10.1409 41 21.4167 41Z" fill="black"/>
<path d="M40.8942 27H31.625C30.542 27 29.5034 27.4214 28.7376 28.1716C27.9719 28.9217 27.5417 29.9391 27.5417 31V40.08M11.2083 3.68005V7.00005C11.2083 8.59135 11.8536 10.1175 13.0023 11.2427C14.151 12.3679 15.7089 13.0001 17.3333 13.0001C18.4163 13.0001 19.4549 13.4215 20.2207 14.1716C20.9865 14.9218 21.4167 15.9392 21.4167 17.0001C21.4167 19.2001 23.2542 21.0001 25.5 21.0001C26.583 21.0001 27.6216 20.5786 28.3873 19.8285C29.1531 19.0783 29.5833 18.0609 29.5833 17.0001C29.5833 14.8001 31.4208 13.0001 33.6667 13.0001H40.1387M19.3746 40.9V33C19.3746 31.9391 18.9444 30.9217 18.1786 30.1716C17.4128 29.4214 16.3742 29 15.2913 29C14.2083 29 13.1697 28.5786 12.4039 27.8284C11.6381 27.0783 11.2079 26.0609 11.2079 25V23C11.2079 21.9391 10.7777 20.9217 10.012 20.1716C9.24618 19.4214 8.20757 19 7.1246 19H1.10168M41.8333 21C41.8333 32.0457 32.6925 41 21.4167 41C10.1409 41 1 32.0457 1 21C1 9.9543 10.1409 1 21.4167 1C32.6925 1 41.8333 9.9543 41.8333 21Z" stroke="white" stroke-width="2" stroke-linecap="round" stroke-linejoin="round"/>
</svg>
