<svg width="42" height="42" viewBox="0 0 42 42" fill="none" xmlns="http://www.w3.org/2000/svg">
<path d="M20.833 0.0126953C23.7133 0.0126953 26.4201 0.559335 28.9531 1.65234C31.4865 2.74549 33.6906 4.2287 35.5645 6.10254C37.4381 7.97627 38.9215 10.1798 40.0146 12.7129C41.1077 15.2459 41.6543 17.9528 41.6543 20.833C41.6543 23.7132 41.1076 26.4201 40.0146 28.9531C38.9215 31.4865 37.4383 33.6906 35.5645 35.5645C33.6906 37.4383 31.4865 38.9215 28.9531 40.0146C26.4201 41.1076 23.7132 41.6543 20.833 41.6543C17.9528 41.6543 15.2459 41.1077 12.7129 40.0146C10.1798 38.9215 7.97627 37.4381 6.10254 35.5645C4.2287 33.6906 2.74549 31.4865 1.65234 28.9531C0.559335 26.4201 0.0126953 23.7133 0.0126953 20.833C0.0127363 17.9528 0.559339 15.2459 1.65234 12.7129C2.74548 10.1797 4.22881 7.97627 6.10254 6.10254C7.97627 4.22881 10.1797 2.74548 12.7129 1.65234C15.2459 0.559339 17.9528 0.0127363 20.833 0.0126953ZM20.833 4.1543C16.2118 4.15437 12.2762 5.77853 9.02734 9.02734C5.77853 12.2762 4.15437 16.2118 4.1543 20.833C4.1543 22.883 4.49326 24.8121 5.1709 26.6191C5.84847 28.4259 6.79553 30.0421 8.01172 31.4668L8.01855 31.4756L8.02832 31.4678C9.79804 30.1145 11.7766 29.0474 13.9629 28.2666C16.1488 27.486 18.4388 27.0957 20.833 27.0957C23.2274 27.0957 25.518 27.4859 27.7041 28.2666C29.8904 29.0474 31.8689 30.1144 33.6387 31.4678L33.6475 31.4756L33.6553 31.4668C34.8715 30.0421 35.8185 28.426 36.4961 26.6191C37.1737 24.8121 37.5127 22.883 37.5127 20.833C37.5126 16.2118 35.8875 12.2762 32.6387 9.02734C29.3898 5.77867 25.4542 4.1543 20.833 4.1543ZM20.833 8.3457C22.8783 8.3457 24.603 9.04745 26.0068 10.4512C27.4107 11.855 28.1123 13.5796 28.1123 15.625C28.1123 17.6704 27.4107 19.395 26.0068 20.7988C24.603 22.2025 22.8783 22.9043 20.833 22.9043C18.7879 22.9042 17.0639 22.2024 15.6602 20.7988C14.2563 19.395 13.5537 17.6704 13.5537 15.625C13.5537 13.5796 14.2563 11.855 15.6602 10.4512C17.0639 9.04764 18.7879 8.34578 20.833 8.3457Z" fill="#0C1014" stroke="#09090B" stroke-width="0.025"/>
</svg>
