<svg width="53" height="53" viewBox="0 0 53 53" fill="none" xmlns="http://www.w3.org/2000/svg">
<path fill-rule="evenodd" clip-rule="evenodd" d="M22.6538 5.34615C13.0951 5.34615 5.34615 13.0951 5.34615 22.6538C5.34615 32.2126 13.0951 39.9615 22.6538 39.9615C27.4338 39.9615 31.7581 38.0264 34.8922 34.8922C38.0264 31.7581 39.9615 27.4338 39.9615 22.6538C39.9615 13.0951 32.2126 5.34615 22.6538 5.34615ZM1.5 22.6538C1.5 10.9709 10.9709 1.5 22.6538 1.5C34.3368 1.5 43.8077 10.9709 43.8077 22.6538C43.8077 27.8021 41.9666 32.5232 38.9101 36.1904L50.9367 48.2171C51.6877 48.9681 51.6877 50.1857 50.9367 50.9367C50.1857 51.6878 48.9681 51.6878 48.2171 50.9367L36.1904 38.9101C32.5232 41.9666 27.8021 43.8077 22.6538 43.8077C10.9709 43.8077 1.5 34.3368 1.5 22.6538Z" stroke="#09090B" stroke-width="3" stroke-linecap="round" stroke-linejoin="round"/>
</svg>
